{
	"asset":{
		"generator":"Khronos glTF Blender I/O v3.5.30",
		"version":"2.0"
	},
	"scene":0,
	"scenes":[
		{
			"name":"Scene",
			"nodes":[
				0
			]
		}
	],
	"nodes":[
		{
			"mesh":0,
			"name":"\u98de\u673a01",
			"rotation":[
				0,
				0.37590351700782776,
				0,
				0.9266588091850281
			]
		}
	],
	"materials":[
		{
			"doubleSided":true,
			"name":"\u98de\u673a\u8d34\u56fe",
			"pbrMetallicRoughness":{
				"baseColorTexture":{
					"index":0
				},
				"metallicFactor":0,
				"roughnessFactor":0.5
			}
		},
		{
			"doubleSided":true,
			"name":"Material #52",
			"pbrMetallicRoughness":{
				"baseColorTexture":{
					"index":1
				},
				"metallicFactor":0,
				"roughnessFactor":0.5
			}
		},
		{
			"doubleSided":true,
			"name":"\u98de\u673a\u8d34\u56fe.001",
			"pbrMetallicRoughness":{
				"baseColorTexture":{
					"index":2
				},
				"metallicFactor":0,
				"roughnessFactor":0.5
			}
		},
		{
			"doubleSided":true,
			"name":"\u8f6e\u5b50",
			"pbrMetallicRoughness":{
				"baseColorTexture":{
					"index":3
				},
				"metallicFactor":0,
				"roughnessFactor":0.5
			}
		},
		{
			"doubleSided":true,
			"name":"\u8d77\u843d\u67b62*",
			"pbrMetallicRoughness":{
				"baseColorTexture":{
					"index":4
				},
				"metallicFactor":0,
				"roughnessFactor":0.5
			}
		},
		{
			"doubleSided":true,
			"name":"Material #22",
			"pbrMetallicRoughness":{
				"baseColorFactor":[
					0.36078399419784546,
					0.36078399419784546,
					0.36078399419784546,
					1
				],
				"metallicFactor":0,
				"roughnessFactor":0.5
			}
		},
		{
			"doubleSided":true,
			"name":"lunzi cm",
			"pbrMetallicRoughness":{
				"baseColorTexture":{
					"index":5
				},
				"metallicFactor":0,
				"roughnessFactor":0.5
			}
		},
		{
			"doubleSided":true,
			"name":"\u8d77\u843d\u67b61",
			"pbrMetallicRoughness":{
				"baseColorTexture":{
					"index":6
				},
				"metallicFactor":0,
				"roughnessFactor":0.5
			}
		},
		{
			"doubleSided":true,
			"name":"\u8d77\u843d\u67b62",
			"pbrMetallicRoughness":{
				"baseColorTexture":{
					"index":7
				},
				"metallicFactor":0,
				"roughnessFactor":0.5
			}
		},
		{
			"doubleSided":true,
			"name":"456465465",
			"pbrMetallicRoughness":{
				"baseColorTexture":{
					"index":8
				},
				"metallicFactor":0,
				"roughnessFactor":0.5
			}
		}
	],
	"meshes":[
		{
			"name":"Obj3d66-596845-9-344",
			"primitives":[
				{
					"attributes":{
						"POSITION":0,
						"TEXCOORD_0":1,
						"NORMAL":2
					},
					"indices":3,
					"material":0
				},
				{
					"attributes":{
						"POSITION":4,
						"TEXCOORD_0":5,
						"NORMAL":6
					},
					"indices":7,
					"material":1
				},
				{
					"attributes":{
						"POSITION":8,
						"TEXCOORD_0":9,
						"NORMAL":10
					},
					"indices":11,
					"material":2
				},
				{
					"attributes":{
						"POSITION":12,
						"TEXCOORD_0":13,
						"NORMAL":14
					},
					"indices":15,
					"material":3
				},
				{
					"attributes":{
						"POSITION":16,
						"TEXCOORD_0":17,
						"NORMAL":18
					},
					"indices":19,
					"material":4
				},
				{
					"attributes":{
						"POSITION":20,
						"TEXCOORD_0":21,
						"NORMAL":22
					},
					"indices":23,
					"material":5
				},
				{
					"attributes":{
						"POSITION":24,
						"TEXCOORD_0":25,
						"NORMAL":26
					},
					"indices":27,
					"material":6
				},
				{
					"attributes":{
						"POSITION":28,
						"TEXCOORD_0":29,
						"NORMAL":30
					},
					"indices":31,
					"material":7
				},
				{
					"attributes":{
						"POSITION":32,
						"TEXCOORD_0":33,
						"NORMAL":34
					},
					"indices":35,
					"material":8
				},
				{
					"attributes":{
						"POSITION":36,
						"TEXCOORD_0":37,
						"NORMAL":38
					},
					"indices":39,
					"material":9
				}
			]
		}
	],
	"textures":[
		{
			"sampler":0,
			"source":0
		},
		{
			"sampler":0,
			"source":1
		},
		{
			"sampler":0,
			"source":2
		},
		{
			"sampler":0,
			"source":3
		},
		{
			"sampler":0,
			"source":4
		},
		{
			"sampler":0,
			"source":5
		},
		{
			"sampler":0,
			"source":6
		},
		{
			"sampler":0,
			"source":4
		},
		{
			"sampler":0,
			"source":7
		}
	],
	"images":[
		{
			"bufferView":4,
			"mimeType":"image/png",
			"name":"3d66Model-596845-files-11"
		},
		{
			"bufferView":9,
			"mimeType":"image/png",
			"name":"3d66Model-596845-files-12"
		},
		{
			"bufferView":14,
			"mimeType":"image/jpeg",
			"name":"3d66Model-596845-files-10"
		},
		{
			"bufferView":19,
			"mimeType":"image/jpeg",
			"name":"3d66Model-596845-files-7"
		},
		{
			"bufferView":24,
			"mimeType":"image/png",
			"name":"3d66Model-596845-files-6"
		},
		{
			"bufferView":33,
			"mimeType":"image/jpeg",
			"name":"3d66Model-596845-files-8"
		},
		{
			"bufferView":38,
			"mimeType":"image/png",
			"name":"3d66Model-596845-files-5"
		},
		{
			"bufferView":47,
			"mimeType":"image/png",
			"name":"3d66Model-596845-files-4"
		}
	],
	"accessors":[
		{
			"bufferView":0,
			"componentType":5126,
			"count":1725,
			"max":[
				9.427823066711426,
				8.708365440368652,
				9.586289405822754
			],
			"min":[
				-9.325088500976562,
				0.25436779856681824,
				-6.659450054168701
			],
			"type":"VEC3"
		},
		{
			"bufferView":1,
			"componentType":5126,
			"count":1725,
			"type":"VEC2"
		},
		{
			"bufferView":2,
			"componentType":5126,
			"count":1725,
			"type":"VEC3"
		},
		{
			"bufferView":3,
			"componentType":5123,
			"count":3753,
			"type":"SCALAR"
		},
		{
			"bufferView":5,
			"componentType":5126,
			"count":1696,
			"max":[
				6.437728404998779,
				8.708373069763184,
				9.485076904296875
			],
			"min":[
				-9.435858726501465,
				0.25438305735588074,
				-9.578198432922363
			],
			"type":"VEC3"
		},
		{
			"bufferView":6,
			"componentType":5126,
			"count":1696,
			"type":"VEC2"
		},
		{
			"bufferView":7,
			"componentType":5126,
			"count":1696,
			"type":"VEC3"
		},
		{
			"bufferView":8,
			"componentType":5123,
			"count":3747,
			"type":"SCALAR"
		},
		{
			"bufferView":10,
			"componentType":5126,
			"count":12,
			"max":[
				9.427841186523438,
				3.6332404613494873,
				-3.8292131423950195
			],
			"min":[
				8.336657524108887,
				3.422403335571289,
				-4.279285430908203
			],
			"type":"VEC3"
		},
		{
			"bufferView":11,
			"componentType":5126,
			"count":12,
			"type":"VEC2"
		},
		{
			"bufferView":12,
			"componentType":5126,
			"count":12,
			"type":"VEC3"
		},
		{
			"bufferView":13,
			"componentType":5123,
			"count":12,
			"type":"SCALAR"
		},
		{
			"bufferView":15,
			"componentType":5126,
			"count":505,
			"max":[
				-0.06380495429039001,
				0.6863139271736145,
				7.310347080230713
			],
			"min":[
				-7.241278648376465,
				0.008006319403648376,
				0.05467938631772995
			],
			"type":"VEC3"
		},
		{
			"bufferView":16,
			"componentType":5126,
			"count":505,
			"type":"VEC2"
		},
		{
			"bufferView":17,
			"componentType":5126,
			"count":505,
			"type":"VEC3"
		},
		{
			"bufferView":18,
			"componentType":5123,
			"count":2007,
			"type":"SCALAR"
		},
		{
			"bufferView":20,
			"componentType":5126,
			"count":182,
			"max":[
				-6.688429355621338,
				1.394129991531372,
				7.1318817138671875
			],
			"min":[
				-7.058710098266602,
				0.17940184473991394,
				6.7551727294921875
			],
			"type":"VEC3"
		},
		{
			"bufferView":21,
			"componentType":5126,
			"count":182,
			"type":"VEC2"
		},
		{
			"bufferView":22,
			"componentType":5126,
			"count":182,
			"type":"VEC3"
		},
		{
			"bufferView":23,
			"componentType":5123,
			"count":219,
			"type":"SCALAR"
		},
		{
			"bufferView":25,
			"componentType":5126,
			"count":110,
			"max":[
				-0.4343307614326477,
				1.5952918529510498,
				3.511488437652588
			],
			"min":[
				-3.589456796646118,
				0.2998616099357605,
				0.4258957505226135
			],
			"type":"VEC3"
		},
		{
			"bufferView":26,
			"componentType":5126,
			"count":110,
			"type":"VEC2"
		},
		{
			"bufferView":27,
			"componentType":5126,
			"count":110,
			"type":"VEC3"
		},
		{
			"bufferView":28,
			"componentType":5123,
			"count":252,
			"type":"SCALAR"
		},
		{
			"bufferView":29,
			"componentType":5126,
			"count":256,
			"max":[
				-0.13752317428588867,
				0.5929114818572998,
				7.254251956939697
			],
			"min":[
				-7.187936782836914,
				0.08300032466650009,
				0.1305985450744629
			],
			"type":"VEC3"
		},
		{
			"bufferView":30,
			"componentType":5126,
			"count":256,
			"type":"VEC2"
		},
		{
			"bufferView":31,
			"componentType":5126,
			"count":256,
			"type":"VEC3"
		},
		{
			"bufferView":32,
			"componentType":5123,
			"count":546,
			"type":"SCALAR"
		},
		{
			"bufferView":34,
			"componentType":5126,
			"count":18,
			"max":[
				-6.920812606811523,
				1.488168716430664,
				7.308709621429443
			],
			"min":[
				-7.231223106384277,
				0.952643871307373,
				6.992623805999756
			],
			"type":"VEC3"
		},
		{
			"bufferView":35,
			"componentType":5126,
			"count":18,
			"type":"VEC2"
		},
		{
			"bufferView":36,
			"componentType":5126,
			"count":18,
			"type":"VEC3"
		},
		{
			"bufferView":37,
			"componentType":5123,
			"count":24,
			"type":"SCALAR"
		},
		{
			"bufferView":39,
			"componentType":5126,
			"count":46,
			"max":[
				-6.712923526763916,
				0.9526439309120178,
				7.111184597015381
			],
			"min":[
				-7.041311264038086,
				0.7149901390075684,
				6.7830610275268555
			],
			"type":"VEC3"
		},
		{
			"bufferView":40,
			"componentType":5126,
			"count":46,
			"type":"VEC2"
		},
		{
			"bufferView":41,
			"componentType":5126,
			"count":46,
			"type":"VEC3"
		},
		{
			"bufferView":42,
			"componentType":5123,
			"count":54,
			"type":"SCALAR"
		},
		{
			"bufferView":43,
			"componentType":5126,
			"count":55,
			"max":[
				-0.4280937910079956,
				1.6965186595916748,
				7.199470520019531
			],
			"min":[
				-7.128675937652588,
				0.7388160228729248,
				0.4176276922225952
			],
			"type":"VEC3"
		},
		{
			"bufferView":44,
			"componentType":5126,
			"count":55,
			"type":"VEC2"
		},
		{
			"bufferView":45,
			"componentType":5126,
			"count":55,
			"type":"VEC3"
		},
		{
			"bufferView":46,
			"componentType":5123,
			"count":78,
			"type":"SCALAR"
		}
	],
	"bufferViews":[
		{
			"buffer":0,
			"byteLength":20700,
			"byteOffset":0,
			"target":34962
		},
		{
			"buffer":0,
			"byteLength":13800,
			"byteOffset":20700,
			"target":34962
		},
		{
			"buffer":0,
			"byteLength":20700,
			"byteOffset":34500,
			"target":34962
		},
		{
			"buffer":0,
			"byteLength":7506,
			"byteOffset":55200,
			"target":34963
		},
		{
			"buffer":0,
			"byteLength":65377,
			"byteOffset":62708
		},
		{
			"buffer":0,
			"byteLength":20352,
			"byteOffset":128088,
			"target":34962
		},
		{
			"buffer":0,
			"byteLength":13568,
			"byteOffset":148440,
			"target":34962
		},
		{
			"buffer":0,
			"byteLength":20352,
			"byteOffset":162008,
			"target":34962
		},
		{
			"buffer":0,
			"byteLength":7494,
			"byteOffset":182360,
			"target":34963
		},
		{
			"buffer":0,
			"byteLength":65367,
			"byteOffset":189856
		},
		{
			"buffer":0,
			"byteLength":144,
			"byteOffset":255224,
			"target":34962
		},
		{
			"buffer":0,
			"byteLength":96,
			"byteOffset":255368,
			"target":34962
		},
		{
			"buffer":0,
			"byteLength":144,
			"byteOffset":255464,
			"target":34962
		},
		{
			"buffer":0,
			"byteLength":24,
			"byteOffset":255608,
			"target":34963
		},
		{
			"buffer":0,
			"byteLength":47631,
			"byteOffset":255632
		},
		{
			"buffer":0,
			"byteLength":6060,
			"byteOffset":303264,
			"target":34962
		},
		{
			"buffer":0,
			"byteLength":4040,
			"byteOffset":309324,
			"target":34962
		},
		{
			"buffer":0,
			"byteLength":6060,
			"byteOffset":313364,
			"target":34962
		},
		{
			"buffer":0,
			"byteLength":4014,
			"byteOffset":319424,
			"target":34963
		},
		{
			"buffer":0,
			"byteLength":39894,
			"byteOffset":323440
		},
		{
			"buffer":0,
			"byteLength":2184,
			"byteOffset":363336,
			"target":34962
		},
		{
			"buffer":0,
			"byteLength":1456,
			"byteOffset":365520,
			"target":34962
		},
		{
			"buffer":0,
			"byteLength":2184,
			"byteOffset":366976,
			"target":34962
		},
		{
			"buffer":0,
			"byteLength":438,
			"byteOffset":369160,
			"target":34963
		},
		{
			"buffer":0,
			"byteLength":16566,
			"byteOffset":369600
		},
		{
			"buffer":0,
			"byteLength":1320,
			"byteOffset":386168,
			"target":34962
		},
		{
			"buffer":0,
			"byteLength":880,
			"byteOffset":387488,
			"target":34962
		},
		{
			"buffer":0,
			"byteLength":1320,
			"byteOffset":388368,
			"target":34962
		},
		{
			"buffer":0,
			"byteLength":504,
			"byteOffset":389688,
			"target":34963
		},
		{
			"buffer":0,
			"byteLength":3072,
			"byteOffset":390192,
			"target":34962
		},
		{
			"buffer":0,
			"byteLength":2048,
			"byteOffset":393264,
			"target":34962
		},
		{
			"buffer":0,
			"byteLength":3072,
			"byteOffset":395312,
			"target":34962
		},
		{
			"buffer":0,
			"byteLength":1092,
			"byteOffset":398384,
			"target":34963
		},
		{
			"buffer":0,
			"byteLength":27121,
			"byteOffset":399476
		},
		{
			"buffer":0,
			"byteLength":216,
			"byteOffset":426600,
			"target":34962
		},
		{
			"buffer":0,
			"byteLength":144,
			"byteOffset":426816,
			"target":34962
		},
		{
			"buffer":0,
			"byteLength":216,
			"byteOffset":426960,
			"target":34962
		},
		{
			"buffer":0,
			"byteLength":48,
			"byteOffset":427176,
			"target":34963
		},
		{
			"buffer":0,
			"byteLength":1199,
			"byteOffset":427224
		},
		{
			"buffer":0,
			"byteLength":552,
			"byteOffset":428424,
			"target":34962
		},
		{
			"buffer":0,
			"byteLength":368,
			"byteOffset":428976,
			"target":34962
		},
		{
			"buffer":0,
			"byteLength":552,
			"byteOffset":429344,
			"target":34962
		},
		{
			"buffer":0,
			"byteLength":108,
			"byteOffset":429896,
			"target":34963
		},
		{
			"buffer":0,
			"byteLength":660,
			"byteOffset":430004,
			"target":34962
		},
		{
			"buffer":0,
			"byteLength":440,
			"byteOffset":430664,
			"target":34962
		},
		{
			"buffer":0,
			"byteLength":660,
			"byteOffset":431104,
			"target":34962
		},
		{
			"buffer":0,
			"byteLength":156,
			"byteOffset":431764,
			"target":34963
		},
		{
			"buffer":0,
			"byteLength":82585,
			"byteOffset":431920
		}
	],
	"samplers":[
		{
			"magFilter":9729,
			"minFilter":9987
		}
	],
	"buffers":[
		{
			"byteLength":514508,
			"uri":"data:application/octet-stream;base64,"
		}
	]
}
