<svg width="2500" height="57" viewBox="0 0 2500 57" fill="none" xmlns="http://www.w3.org/2000/svg">
<path d="M2 2L25.5 25.5H338.5L350.5 35.5H654" stroke="url(#paint0_linear_120_2892)" stroke-width="4"/>
<path d="M85.5 14.5H234.5L244.5 25.5H75.5L85.5 14.5Z" fill="url(#paint1_linear_120_2892)"/>
<path d="M2498.5 2L2475 25.5H2162L2150 35.5H1846.5" stroke="url(#paint2_linear_120_2892)" stroke-width="4"/>
<path d="M2415 14.5H2266L2256 25.5H2425L2415 14.5Z" fill="url(#paint3_linear_120_2892)"/>
<mask id="mask0_120_2892" style="mask-type:alpha" maskUnits="userSpaceOnUse" x="569" y="15" width="1362" height="42">
<path d="M654 40.5C627.6 46.5 586.333 54 569 57H1930.5C1913.17 54 1871.9 46.5 1845.5 40.5C1812.5 33 1772.5 24 1708 19.5C1643.5 15 1419.5 15 1324 15H1175.5C1080 15 856 15 791.5 19.5C727 24 687 33 654 40.5Z" fill="url(#paint4_linear_120_2892)"/>
</mask>
<g mask="url(#mask0_120_2892)">
<path d="M654 40.5C627.6 46.5 586.333 54 569 57H1930.5C1913.17 54 1871.9 46.5 1845.5 40.5C1812.5 33 1772.5 24 1708 19.5C1643.5 15 1419.5 15 1324 15H1175.5C1080 15 856 15 791.5 19.5C727 24 687 33 654 40.5Z" fill="url(#paint5_linear_120_2892)"/>
</g>
<defs>
<linearGradient id="paint0_linear_120_2892" x1="70" y1="35.5002" x2="654.5" y2="35.5002" gradientUnits="userSpaceOnUse">
<stop stop-color="#3998FF" stop-opacity="0.243137"/>
<stop offset="0.480974" stop-color="#65A7FF" stop-opacity="0.227451"/>
<stop offset="0.814015" stop-color="#3894FF" stop-opacity="0.141176"/>
<stop offset="1" stop-color="#3894FF" stop-opacity="0"/>
</linearGradient>
<linearGradient id="paint1_linear_120_2892" x1="75.5" y1="25.5" x2="244.5" y2="25.5" gradientUnits="userSpaceOnUse">
<stop stop-color="#014C97" stop-opacity="0.54902"/>
<stop offset="1" stop-color="#487BC2" stop-opacity="0.54902"/>
</linearGradient>
<linearGradient id="paint2_linear_120_2892" x1="2430.5" y1="35.5002" x2="1846" y2="35.5002" gradientUnits="userSpaceOnUse">
<stop stop-color="#3998FF" stop-opacity="0.243137"/>
<stop offset="0.480974" stop-color="#65A7FF" stop-opacity="0.227451"/>
<stop offset="0.814015" stop-color="#3894FF" stop-opacity="0.141176"/>
<stop offset="1" stop-color="#3894FF" stop-opacity="0"/>
</linearGradient>
<linearGradient id="paint3_linear_120_2892" x1="2425" y1="25.5" x2="2256" y2="25.5" gradientUnits="userSpaceOnUse">
<stop stop-color="#014C97" stop-opacity="0.54902"/>
<stop offset="1" stop-color="#487BC2" stop-opacity="0.54902"/>
</linearGradient>
<linearGradient id="paint4_linear_120_2892" x1="569.5" y1="57.0003" x2="1930.5" y2="57.0003" gradientUnits="userSpaceOnUse">
<stop offset="0.0391139" stop-color="#2570DF" stop-opacity="0"/>
<stop offset="0.24525" stop-color="#2570DF"/>
<stop offset="0.759078" stop-color="#2277DD"/>
<stop offset="1" stop-color="#2277DD" stop-opacity="0.33"/>
</linearGradient>
<linearGradient id="paint5_linear_120_2892" x1="1249.75" y1="15" x2="1249.75" y2="57" gradientUnits="userSpaceOnUse">
<stop stop-color="#2570DF" stop-opacity="0.478431"/>
<stop offset="0.491794" stop-color="#2570DD" stop-opacity="0.266667"/>
<stop offset="1" stop-color="#2277DD" stop-opacity="0.0588235"/>
</linearGradient>
</defs>
</svg>
