<svg width="40" height="1062" viewBox="0 0 40 1062" fill="none" xmlns="http://www.w3.org/2000/svg">
<path d="M14 130L13 5H8V1057H13L14 905.5L16.5 778.5C17.5 748 19.8 685 21 677C23.625 659.5 24.5 658 26 648.5C27.5 639 32 629 32 591V542V493.5V444.5C32 406.5 27.5 396.5 26 387C24.5 377.5 23.625 376 21 358.5C19.8 350.5 17.5 287.5 16.5 257L14 130Z" fill="url(#paint0_linear_120_2853)"/>
<path d="M13.5 130L12.5 5H11V1057H12.5L13.5 905.5L16 778.5C17 748 19.3 685 20.5 677C23.125 659.5 24 658 25.5 648.5C27 639 31.5 629 31.5 591V542V493.5V444.5C31.5 406.5 27 396.5 25.5 387C24 377.5 23.125 376 20.5 358.5C19.3 350.5 17 287.5 16 257L13.5 130Z" fill="#1B9AFF" fill-opacity="0.109804"/>
<mask id="mask0_120_2853" style="mask-type:alpha" maskUnits="userSpaceOnUse" x="11" y="5" width="21" height="1052">
<path d="M13.5 130L12.5 5H11V1057H12.5L13.5 905.5L16 778.5C17 748 19.3 685 20.5 677C23.125 659.5 24 658 25.5 648.5C27 639 31.5 629 31.5 591V542V493.5V444.5C31.5 406.5 27 396.5 25.5 387C24 377.5 23.125 376 20.5 358.5C19.3 350.5 17 287.5 16 257L13.5 130Z" fill="#1B9AFF"/>
</mask>
<g mask="url(#mask0_120_2853)">
<g filter="url(#filter0_f_120_2853)">
<ellipse cx="50.5" cy="531.5" rx="25.5" ry="63.5" fill="#46B3FF" fill-opacity="0.184314"/>
</g>
<g filter="url(#filter1_f_120_2853)">
<ellipse cx="50.5" cy="531.5" rx="25.5" ry="42.5" fill="#46B3FF" fill-opacity="0.27"/>
</g>
</g>
<path d="M13 5L14 130L16.5 257C17.5 287.5 19.8 350.5 21 358.5C23.625 376 24.5 377.5 26 387C27.5 396.5 32 406.5 32 444.5C32 474.9 32 522.167 32 542M13 1057L14 905.5L16.5 778.5C17.5 748 19.8 685 21 677C23.625 659.5 24.5 658 26 648.5C27.5 639 32 629 32 591C32 560.6 32 513.333 32 493.5" stroke="url(#paint1_linear_120_2853)" stroke-width="2"/>
<g opacity="0.4" filter="url(#filter2_f_120_2853)">
<path d="M13 5L14 130L16.5 257C17.5 287.5 19.8 350.5 21 358.5C23.625 376 24.5 377.5 26 387C27.5 396.5 32 406.5 32 444.5C32 474.9 32 522.167 32 542M13 1057L14 905.5L16.5 778.5C17.5 748 19.8 685 21 677C23.625 659.5 24.5 658 26 648.5C27.5 639 32 629 32 591C32 560.6 32 513.333 32 493.5" stroke="url(#paint2_linear_120_2853)" stroke-width="8"/>
</g>
<path d="M13 5L14 130L16.5 257C17.5 287.5 19.8 350.5 21 358.5C23.625 376 24.5 377.5 26 387C27.5 396.5 32 406.5 32 444.5C32 474.9 32 522.167 32 542M13 1057L14 905.5L16.5 778.5C17.5 748 19.8 685 21 677C23.625 659.5 24.5 658 26 648.5C27.5 639 32 629 32 591C32 560.6 32 513.333 32 493.5" stroke="url(#paint3_linear_120_2853)" stroke-width="2"/>
<path d="M3 5L4 130L6.5 257C7.5 287.5 9.8 350.5 11 358.5C13.625 376 14.5 377.5 16 387C17.5 396.5 22 406.5 22 444.5C22 474.9 22 522.167 22 542M3 1057L4 905.5L6.5 778.5C7.5 748 9.8 685 11 677C13.625 659.5 14.5 658 16 648.5C17.5 639 22 629 22 591C22 560.6 22 513.333 22 493.5" stroke="url(#paint4_linear_120_2853)" stroke-width="6"/>
<path d="M3 5L4 130L6.5 257C7.5 287.5 9.8 350.5 11 358.5C13.625 376 14.5 377.5 16 387C17.5 396.5 22 406.5 22 444.5C22 474.9 22 522.167 22 542M3 1057L4 905.5L6.5 778.5C7.5 748 9.8 685 11 677C13.625 659.5 14.5 658 16 648.5C17.5 639 22 629 22 591C22 560.6 22 513.333 22 493.5" stroke="url(#paint5_linear_120_2853)" stroke-width="6"/>
<defs>
<filter id="filter0_f_120_2853" x="0" y="443" width="101" height="177" filterUnits="userSpaceOnUse" color-interpolation-filters="sRGB">
<feFlood flood-opacity="0" result="BackgroundImageFix"/>
<feBlend mode="normal" in="SourceGraphic" in2="BackgroundImageFix" result="shape"/>
<feGaussianBlur stdDeviation="12.5" result="effect1_foregroundBlur_120_2853"/>
</filter>
<filter id="filter1_f_120_2853" x="6" y="470" width="89" height="123" filterUnits="userSpaceOnUse" color-interpolation-filters="sRGB">
<feFlood flood-opacity="0" result="BackgroundImageFix"/>
<feBlend mode="normal" in="SourceGraphic" in2="BackgroundImageFix" result="shape"/>
<feGaussianBlur stdDeviation="9.5" result="effect1_foregroundBlur_120_2853"/>
</filter>
<filter id="filter2_f_120_2853" x="5" y="0.967987" width="35" height="1060.06" filterUnits="userSpaceOnUse" color-interpolation-filters="sRGB">
<feFlood flood-opacity="0" result="BackgroundImageFix"/>
<feBlend mode="normal" in="SourceGraphic" in2="BackgroundImageFix" result="shape"/>
<feGaussianBlur stdDeviation="2" result="effect1_foregroundBlur_120_2853"/>
</filter>
<linearGradient id="paint0_linear_120_2853" x1="32" y1="517.5" x2="8" y2="517.5" gradientUnits="userSpaceOnUse">
<stop stop-color="#199AFA" stop-opacity="0.239216"/>
<stop offset="0.74348" stop-color="#199AFA" stop-opacity="0"/>
</linearGradient>
<linearGradient id="paint1_linear_120_2853" x1="22.5" y1="5" x2="22.5" y2="1057" gradientUnits="userSpaceOnUse">
<stop offset="0.00587524" stop-color="#439CF6" stop-opacity="0"/>
<stop offset="0.0349103" stop-color="#439CF6" stop-opacity="0.223529"/>
<stop offset="0.0917602" stop-color="#429AF2" stop-opacity="0.329412"/>
<stop offset="0.494286" stop-color="#439BF3" stop-opacity="0.341176"/>
<stop offset="0.917028" stop-color="#4199F5" stop-opacity="0.305882"/>
<stop offset="0.966465" stop-color="#3F9CF3" stop-opacity="0.172549"/>
<stop offset="0.992693" stop-color="#439BF3" stop-opacity="0"/>
</linearGradient>
<linearGradient id="paint2_linear_120_2853" x1="22.5" y1="5" x2="22.5" y2="1057" gradientUnits="userSpaceOnUse">
<stop offset="0.0573342" stop-color="#6BADFF" stop-opacity="0"/>
<stop offset="0.32056" stop-color="#6BADFF" stop-opacity="0.164706"/>
<stop offset="0.40302" stop-color="#A2D5FF" stop-opacity="0.215686"/>
<stop offset="0.446196" stop-color="#6BADFF" stop-opacity="0.435294"/>
<stop offset="0.494286" stop-color="#6BADFF" stop-opacity="0.576471"/>
<stop offset="0.568043" stop-color="#6BADFF" stop-opacity="0.258824"/>
<stop offset="0.620527" stop-color="#6BADFF" stop-opacity="0.164706"/>
<stop offset="0.848901" stop-color="#6BADFF" stop-opacity="0"/>
</linearGradient>
<linearGradient id="paint3_linear_120_2853" x1="22.5" y1="5" x2="22.5" y2="1057" gradientUnits="userSpaceOnUse">
<stop offset="0.0573342" stop-color="#A3D4FF" stop-opacity="0"/>
<stop offset="0.32056" stop-color="#A2D0FF" stop-opacity="0.172549"/>
<stop offset="0.40302" stop-color="#A2D5FF" stop-opacity="0.215686"/>
<stop offset="0.446196" stop-color="#AAD5FF" stop-opacity="0.435294"/>
<stop offset="0.494286" stop-color="#ADD7FF" stop-opacity="0.576471"/>
<stop offset="0.568043" stop-color="#A2D4FF" stop-opacity="0.258824"/>
<stop offset="0.620527" stop-color="#A3D4FF" stop-opacity="0.164706"/>
<stop offset="0.848901" stop-color="#A3D4FF" stop-opacity="0"/>
</linearGradient>
<linearGradient id="paint4_linear_120_2853" x1="12.5" y1="5" x2="12.5" y2="1057" gradientUnits="userSpaceOnUse">
<stop offset="0.385364" stop-color="#3D94EC" stop-opacity="0"/>
<stop offset="0.45242" stop-color="#3D94EC" stop-opacity="0.533333"/>
<stop offset="0.494286" stop-color="#3D93EC" stop-opacity="0.976471"/>
<stop offset="0.542845" stop-color="#3D93ED" stop-opacity="0.8"/>
<stop offset="0.587211" stop-color="#3D93EC" stop-opacity="0.372549"/>
<stop offset="0.612272" stop-color="#3D93EC" stop-opacity="0"/>
</linearGradient>
<linearGradient id="paint5_linear_120_2853" x1="12.5" y1="5" x2="12.5" y2="1057" gradientUnits="userSpaceOnUse">
<stop offset="0.385364" stop-color="#3D94EC" stop-opacity="0"/>
<stop offset="0.442508" stop-color="#A3D1FF" stop-opacity="0"/>
<stop offset="0.468218" stop-color="#A3D1FF" stop-opacity="0.262745"/>
<stop offset="0.494286" stop-color="#A4D0FF" stop-opacity="0.968627"/>
<stop offset="0.515279" stop-color="#A3D0FF" stop-opacity="0.933333"/>
<stop offset="0.528569" stop-color="#A4D0FF" stop-opacity="0.521569"/>
<stop offset="0.542845" stop-color="#A1D4FF" stop-opacity="0.117647"/>
<stop offset="0.561686" stop-color="#A1D4FF" stop-opacity="0"/>
</linearGradient>
</defs>
</svg>
