{
	"asset":{
		"generator":"Khronos glTF Blender I/O v3.5.30",
		"version":"2.0"
	},
	"scene":0,
	"scenes":[
		{
			"name":"Scene",
			"nodes":[
				0
			]
		}
	],
	"nodes":[
		{
			"mesh":0,
			"name":"Ship"
		}
	],
	"materials":[
		{
			"alphaMode":"BLEND",
			"doubleSided":true,
			"name":"Fencing",
			"pbrMetallicRoughness":{
				"baseColorTexture":{
					"index":0
				},
				"metallicFactor":0.5,
				"roughnessFactor":0.5
			}
		},
		{
			"name":"Hull",
			"pbrMetallicRoughness":{
				"baseColorTexture":{
					"index":1
				},
				"metallicFactor":0.5,
				"roughnessFactor":0.5
			}
		},
		{
			"name":"Superstructure",
			"pbrMetallicRoughness":{
				"baseColorTexture":{
					"index":2
				},
				"metallicFactor":0.5,
				"roughnessFactor":0.5
			}
		},
		{
			"alphaMode":"BLEND",
			"doubleSided":true,
			"name":"Rigging",
			"pbrMetallicRoughness":{
				"baseColorTexture":{
					"index":3
				},
				"metallicFactor":0.20000000298023224
			}
		},
		{
			"alphaMode":"BLEND",
			"doubleSided":true,
			"name":"Rail",
			"pbrMetallicRoughness":{
				"baseColorTexture":{
					"index":4
				},
				"metallicFactor":0.5,
				"roughnessFactor":0.5
			}
		}
	],
	"meshes":[
		{
			"name":"ShipMesh",
			"primitives":[
				{
					"attributes":{
						"POSITION":0,
						"TEXCOORD_0":1,
						"NORMAL":2
					},
					"indices":3,
					"material":0
				},
				{
					"attributes":{
						"POSITION":4,
						"TEXCOORD_0":5,
						"NORMAL":6
					},
					"indices":7,
					"material":1
				},
				{
					"attributes":{
						"POSITION":8,
						"TEXCOORD_0":9,
						"NORMAL":10
					},
					"indices":11,
					"material":2
				},
				{
					"attributes":{
						"POSITION":12,
						"TEXCOORD_0":13,
						"NORMAL":14
					},
					"indices":15,
					"material":3
				},
				{
					"attributes":{
						"POSITION":16,
						"TEXCOORD_0":17,
						"NORMAL":18
					},
					"indices":19,
					"material":4
				}
			]
		}
	],
	"textures":[
		{
			"sampler":0,
			"source":0
		},
		{
			"sampler":0,
			"source":1
		},
		{
			"sampler":0,
			"source":2
		},
		{
			"sampler":0,
			"source":3
		},
		{
			"sampler":0,
			"source":4
		}
	],
	"images":[
		{
			"bufferView":4,
			"mimeType":"image/png",
			"name":"ship_Fencing"
		},
		{
			"bufferView":9,
			"mimeType":"image/jpeg",
			"name":"ship_Hull"
		},
		{
			"bufferView":14,
			"mimeType":"image/jpeg",
			"name":"ship_Superstructure"
		},
		{
			"bufferView":19,
			"mimeType":"image/png",
			"name":"ship_Rigging"
		},
		{
			"bufferView":24,
			"mimeType":"image/png",
			"name":"ship_Rail"
		}
	],
	"accessors":[
		{
			"bufferView":0,
			"componentType":5126,
			"count":12,
			"max":[
				7.913430213928223,
				5.295839786529541,
				-56.05009841918945
			],
			"min":[
				-7.89385986328125,
				3.667530059814453,
				-77.98770141601562
			],
			"type":"VEC3"
		},
		{
			"bufferView":1,
			"componentType":5126,
			"count":12,
			"type":"VEC2"
		},
		{
			"bufferView":2,
			"componentType":5126,
			"count":12,
			"type":"VEC3"
		},
		{
			"bufferView":3,
			"componentType":5123,
			"count":18,
			"type":"SCALAR"
		},
		{
			"bufferView":5,
			"componentType":5126,
			"count":920,
			"max":[
				9.520585060119629,
				20.879867553710938,
				77.78692626953125
			],
			"min":[
				-9.520585060119629,
				-1.3309026956558228,
				-77.58625793457031
			],
			"type":"VEC3"
		},
		{
			"bufferView":6,
			"componentType":5126,
			"count":920,
			"type":"VEC2"
		},
		{
			"bufferView":7,
			"componentType":5126,
			"count":920,
			"type":"VEC3"
		},
		{
			"bufferView":8,
			"componentType":5123,
			"count":2139,
			"type":"SCALAR"
		},
		{
			"bufferView":10,
			"componentType":5126,
			"count":1173,
			"max":[
				10.528868675231934,
				39.83796691894531,
				51.206871032714844
			],
			"min":[
				-10.528868675231934,
				7.11631965637207,
				-30.47170066833496
			],
			"type":"VEC3"
		},
		{
			"bufferView":11,
			"componentType":5126,
			"count":1173,
			"type":"VEC2"
		},
		{
			"bufferView":12,
			"componentType":5126,
			"count":1173,
			"type":"VEC3"
		},
		{
			"bufferView":13,
			"componentType":5123,
			"count":2367,
			"type":"SCALAR"
		},
		{
			"bufferView":15,
			"componentType":5126,
			"count":64,
			"max":[
				8.600000381469727,
				37.093299865722656,
				19.098499298095703
			],
			"min":[
				-8.600000381469727,
				17.71820068359375,
				10.726300239562988
			],
			"type":"VEC3"
		},
		{
			"bufferView":16,
			"componentType":5126,
			"count":64,
			"type":"VEC2"
		},
		{
			"bufferView":17,
			"componentType":5126,
			"count":64,
			"type":"VEC3"
		},
		{
			"bufferView":18,
			"componentType":5123,
			"count":96,
			"type":"SCALAR"
		},
		{
			"bufferView":20,
			"componentType":5126,
			"count":168,
			"max":[
				10.521400451660156,
				38.369300842285156,
				77.55653381347656
			],
			"min":[
				-10.521400451660156,
				6.958712577819824,
				-54.13777160644531
			],
			"type":"VEC3"
		},
		{
			"bufferView":21,
			"componentType":5126,
			"count":168,
			"type":"VEC2"
		},
		{
			"bufferView":22,
			"componentType":5126,
			"count":168,
			"type":"VEC3"
		},
		{
			"bufferView":23,
			"componentType":5123,
			"count":366,
			"type":"SCALAR"
		}
	],
	"bufferViews":[
		{
			"buffer":0,
			"byteLength":144,
			"byteOffset":0,
			"target":34962
		},
		{
			"buffer":0,
			"byteLength":96,
			"byteOffset":144,
			"target":34962
		},
		{
			"buffer":0,
			"byteLength":144,
			"byteOffset":240,
			"target":34962
		},
		{
			"buffer":0,
			"byteLength":36,
			"byteOffset":384,
			"target":34963
		},
		{
			"buffer":0,
			"byteLength":34956,
			"byteOffset":420
		},
		{
			"buffer":0,
			"byteLength":11040,
			"byteOffset":35376,
			"target":34962
		},
		{
			"buffer":0,
			"byteLength":7360,
			"byteOffset":46416,
			"target":34962
		},
		{
			"buffer":0,
			"byteLength":11040,
			"byteOffset":53776,
			"target":34962
		},
		{
			"buffer":0,
			"byteLength":4278,
			"byteOffset":64816,
			"target":34963
		},
		{
			"buffer":0,
			"byteLength":1061785,
			"byteOffset":69096
		},
		{
			"buffer":0,
			"byteLength":14076,
			"byteOffset":1130884,
			"target":34962
		},
		{
			"buffer":0,
			"byteLength":9384,
			"byteOffset":1144960,
			"target":34962
		},
		{
			"buffer":0,
			"byteLength":14076,
			"byteOffset":1154344,
			"target":34962
		},
		{
			"buffer":0,
			"byteLength":4734,
			"byteOffset":1168420,
			"target":34963
		},
		{
			"buffer":0,
			"byteLength":1263519,
			"byteOffset":1173156
		},
		{
			"buffer":0,
			"byteLength":768,
			"byteOffset":2436676,
			"target":34962
		},
		{
			"buffer":0,
			"byteLength":512,
			"byteOffset":2437444,
			"target":34962
		},
		{
			"buffer":0,
			"byteLength":768,
			"byteOffset":2437956,
			"target":34962
		},
		{
			"buffer":0,
			"byteLength":192,
			"byteOffset":2438724,
			"target":34963
		},
		{
			"buffer":0,
			"byteLength":205674,
			"byteOffset":2438916
		},
		{
			"buffer":0,
			"byteLength":2016,
			"byteOffset":2644592,
			"target":34962
		},
		{
			"buffer":0,
			"byteLength":1344,
			"byteOffset":2646608,
			"target":34962
		},
		{
			"buffer":0,
			"byteLength":2016,
			"byteOffset":2647952,
			"target":34962
		},
		{
			"buffer":0,
			"byteLength":732,
			"byteOffset":2649968,
			"target":34963
		},
		{
			"buffer":0,
			"byteLength":9019,
			"byteOffset":2650700
		}
	],
	"samplers":[
		{
			"magFilter":9729,
			"minFilter":9987
		}
	],
	"buffers":[
		{
			"byteLength":2659720,
			"uri":"data:application/octet-stream;base64,"
		}
	]
}
