<svg width="3800" height="97" viewBox="0 0 3800 97" fill="none" xmlns="http://www.w3.org/2000/svg">
<path d="M1443 0.5H1529.29L1561 63H1477.71L1443 29V0.5Z" fill="url(#paint0_linear_471_4446)"/>
<path fill-rule="evenodd" clip-rule="evenodd" d="M1560.5 62.4999L1476 61.9999L1469.04 56L1557.54 56.5L1560.5 62.4999Z" fill="url(#paint1_linear_471_4446)"/>
<path d="M1442 0V29L1477 63H1561" stroke="url(#paint2_linear_471_4446)" stroke-width="2"/>
<path d="M2346 0.5H2259.5L2228 63H2311.29L2346 29V0.5Z" fill="url(#paint3_linear_471_4446)"/>
<path fill-rule="evenodd" clip-rule="evenodd" d="M2228.5 62.4999L2313 61.9999L2319.96 56L2231.46 56.5L2228.5 62.4999Z" fill="url(#paint4_linear_471_4446)"/>
<path d="M2347 0.5V29L2312 63H2228" stroke="url(#paint5_linear_471_4446)" stroke-width="2"/>
<path d="M1528.5 0H2261L2225 72H1939.5L1931 66H1894.5H1856.5L1847.5 72H1564L1528.5 0Z" fill="url(#paint6_linear_471_4446)"/>
<g filter="url(#filter0_dd_471_4446)">
<path d="M1936 75H1852L1858 70H1930L1936 75Z" fill="#C2DEFF"/>
</g>
<path fill-rule="evenodd" clip-rule="evenodd" d="M1546 35.5H1553L1567.85 65H1728.5V72H1564.15L1546 35.5Z" fill="url(#paint7_linear_471_4446)"/>
<path fill-rule="evenodd" clip-rule="evenodd" d="M2243.5 34H2236.5L2221.65 63.5H2061V70.5H2225.35L2243.5 34Z" fill="url(#paint8_linear_471_4446)"/>
<path fill-rule="evenodd" clip-rule="evenodd" d="M1854.97 63.5H1932.5L1940.5 69.5H2049.5L2052.5 72.5H1939.5L1931.5 66.5H1856.03L1848.53 72.5H1736L1739 69.5H1847.47L1854.97 63.5Z" fill="url(#paint9_linear_471_4446)"/>
<path d="M1528.5 0.5L1564 72H1848L1855.5 66H1932L1940 72H2225L2260.5 0.5" stroke="url(#paint10_linear_471_4446)" stroke-width="2"/>
<path opacity="0.81" d="M1681.19 52.5L1699.85 43.5H1736.97L1719.8 52.5H1681.19Z" fill="url(#paint11_linear_471_4446)" stroke="url(#paint12_linear_471_4446)"/>
<path opacity="0.81" d="M1848.77 63.5L1853.27 53.5H1881.4L1884.33 63.5H1848.77Z" fill="url(#paint13_linear_471_4446)" stroke="url(#paint14_linear_471_4446)"/>
<path d="M1572.99 62.5L1635.8 46.5H1723.37L1699.77 62.5H1572.99Z" fill="url(#paint15_linear_471_4446)" stroke="url(#paint16_linear_471_4446)"/>
<path opacity="0.18" d="M2073.95 27.5L2043.14 11.5H1955.63L1979.23 27.5H2073.95Z" fill="url(#paint17_linear_471_4446)" stroke="url(#paint18_linear_471_4446)"/>
<path d="M2066.95 33.5L2036.14 17.5H1948.63L1972.23 33.5H2066.95Z" fill="url(#paint19_linear_471_4446)" stroke="url(#paint20_linear_471_4446)"/>
<g filter="url(#filter1_dd_471_4446)">
<path d="M1609 71H1685L1679 76H1615L1609 71Z" fill="#C2DEFF"/>
</g>
<g filter="url(#filter2_dd_471_4446)">
<path d="M2104 71H2180L2174 76H2110L2104 71Z" fill="#C2DEFF"/>
</g>
<path opacity="0.6" d="M2236 68H2254L2252 70H2234L2236 68Z" fill="#F2994A"/>
<path d="M2260 68H2278L2276 70H2258L2260 68Z" fill="#F2994A"/>
<path opacity="0.3" d="M2284 68H2302L2300 70H2282L2284 68Z" fill="#F2994A"/>
<path opacity="0.6" d="M1554 68H1536L1538 70H1556L1554 68Z" fill="#F2994A"/>
<path d="M1530 68H1512L1514 70H1532L1530 68Z" fill="#F2994A"/>
<path opacity="0.3" d="M1506 68H1488L1490 70H1508L1506 68Z" fill="#F2994A"/>
<path d="M2347 59H2364L2367 61H2344L2347 59Z" fill="#0E4688"/>
<path d="M3759 60H3774L3777 62H3762L3759 60Z" fill="#1B7EF2"/>
<path d="M3782 60H3797L3800 62H3785L3782 60Z" fill="#0D3565"/>
<path opacity="0.2" d="M2722 55H2740L2738 57H2720L2722 55Z" fill="#F2994A"/>
<path opacity="0.2" d="M2746 55H2764L2762 57H2744L2746 55Z" fill="#F2994A"/>
<path opacity="0.2" d="M2770 55H2788L2786 57H2768L2770 55Z" fill="#F2994A"/>
<path fill-rule="evenodd" clip-rule="evenodd" d="M2792.41 53H2815L2820 57H2794.59L2790.09 63H2369L2373 59H2787.91L2792.41 53Z" fill="#0E4688"/>
<line x1="2798" y1="62.5" x2="3295" y2="62.5" stroke="#0E488D"/>
<line x1="3307" y1="62.5" x2="3751" y2="61.4553" stroke="#0E488D"/>
<path d="M2341 62H2379V63H2340L2341 62Z" fill="#0E488D"/>
<path d="M2853 56H2817V57H2853V56Z" fill="#0E488D"/>
<path d="M3800 56H2863V57H3800L3800 56Z" fill="#0D3565"/>
<path d="M3304 60H3306L3308 63H3306L3304 60Z" fill="#1B7EF2"/>
<path d="M1453 59H1436L1433 61H1456L1453 59Z" fill="#0E4688"/>
<path d="M41 60H26L23 62H38L41 60Z" fill="#1B7EF2"/>
<path opacity="0.7" d="M18 60H3L0 62H15L18 60Z" fill="#0D3565"/>
<path opacity="0.2" d="M1078 55H1060L1062 57H1080L1078 55Z" fill="#F2994A"/>
<path opacity="0.2" d="M1054 55H1036L1038 57H1056L1054 55Z" fill="#F2994A"/>
<path opacity="0.2" d="M1030 55H1012L1014 57H1032L1030 55Z" fill="#F2994A"/>
<path fill-rule="evenodd" clip-rule="evenodd" d="M1007.59 53H985L980 57H1005.41L1009.91 63H1431L1427 59H1012.09L1007.59 53Z" fill="#0E4688"/>
<line y1="-0.5" x2="497" y2="-0.5" transform="matrix(-1 0 0 1 1002 63)" stroke="#0E488D"/>
<line y1="-0.5" x2="444.001" y2="-0.5" transform="matrix(-0.999997 -0.00235293 -0.00235293 0.999997 493 63)" stroke="#0E488D"/>
<path d="M1459 62H1421V63H1460L1459 62Z" fill="#0E488D"/>
<path d="M947 56H983V57H947V56Z" fill="#0E488D"/>
<path d="M0.00349487 56H937V57H0L0.00349487 56Z" fill="#0D3565"/>
<path d="M496 60H494L492 63H494L496 60Z" fill="#1B7EF2"/>
<defs>
<filter id="filter0_dd_471_4446" x="1832" y="52" width="124" height="45" filterUnits="userSpaceOnUse" color-interpolation-filters="sRGB">
<feFlood flood-opacity="0" result="BackgroundImageFix"/>
<feColorMatrix in="SourceAlpha" type="matrix" values="0 0 0 0 0 0 0 0 0 0 0 0 0 0 0 0 0 0 127 0" result="hardAlpha"/>
<feMorphology radius="2" operator="dilate" in="SourceAlpha" result="effect1_dropShadow_471_4446"/>
<feOffset dy="2"/>
<feGaussianBlur stdDeviation="9"/>
<feComposite in2="hardAlpha" operator="out"/>
<feColorMatrix type="matrix" values="0 0 0 0 0.405521 0 0 0 0 0.657898 0 0 0 0 0.954167 0 0 0 0.52 0"/>
<feBlend mode="normal" in2="BackgroundImageFix" result="effect1_dropShadow_471_4446"/>
<feColorMatrix in="SourceAlpha" type="matrix" values="0 0 0 0 0 0 0 0 0 0 0 0 0 0 0 0 0 0 127 0" result="hardAlpha"/>
<feMorphology radius="5" operator="dilate" in="SourceAlpha" result="effect2_dropShadow_471_4446"/>
<feOffset dy="1"/>
<feGaussianBlur stdDeviation="4.5"/>
<feComposite in2="hardAlpha" operator="out"/>
<feColorMatrix type="matrix" values="0 0 0 0 0.568455 0 0 0 0 0.765049 0 0 0 0 0.995833 0 0 0 0.83 0"/>
<feBlend mode="normal" in2="effect1_dropShadow_471_4446" result="effect2_dropShadow_471_4446"/>
<feBlend mode="normal" in="SourceGraphic" in2="effect2_dropShadow_471_4446" result="shape"/>
</filter>
<filter id="filter1_dd_471_4446" x="1589" y="51" width="116" height="45" filterUnits="userSpaceOnUse" color-interpolation-filters="sRGB">
<feFlood flood-opacity="0" result="BackgroundImageFix"/>
<feColorMatrix in="SourceAlpha" type="matrix" values="0 0 0 0 0 0 0 0 0 0 0 0 0 0 0 0 0 0 127 0" result="hardAlpha"/>
<feMorphology radius="2" operator="dilate" in="SourceAlpha" result="effect1_dropShadow_471_4446"/>
<feOffset/>
<feGaussianBlur stdDeviation="9"/>
<feComposite in2="hardAlpha" operator="out"/>
<feColorMatrix type="matrix" values="0 0 0 0 0.405521 0 0 0 0 0.657898 0 0 0 0 0.954167 0 0 0 0.52 0"/>
<feBlend mode="normal" in2="BackgroundImageFix" result="effect1_dropShadow_471_4446"/>
<feColorMatrix in="SourceAlpha" type="matrix" values="0 0 0 0 0 0 0 0 0 0 0 0 0 0 0 0 0 0 127 0" result="hardAlpha"/>
<feMorphology radius="5" operator="dilate" in="SourceAlpha" result="effect2_dropShadow_471_4446"/>
<feOffset/>
<feGaussianBlur stdDeviation="4.5"/>
<feComposite in2="hardAlpha" operator="out"/>
<feColorMatrix type="matrix" values="0 0 0 0 0.568455 0 0 0 0 0.765049 0 0 0 0 0.995833 0 0 0 0.83 0"/>
<feBlend mode="normal" in2="effect1_dropShadow_471_4446" result="effect2_dropShadow_471_4446"/>
<feBlend mode="normal" in="SourceGraphic" in2="effect2_dropShadow_471_4446" result="shape"/>
</filter>
<filter id="filter2_dd_471_4446" x="2084" y="51" width="116" height="45" filterUnits="userSpaceOnUse" color-interpolation-filters="sRGB">
<feFlood flood-opacity="0" result="BackgroundImageFix"/>
<feColorMatrix in="SourceAlpha" type="matrix" values="0 0 0 0 0 0 0 0 0 0 0 0 0 0 0 0 0 0 127 0" result="hardAlpha"/>
<feMorphology radius="2" operator="dilate" in="SourceAlpha" result="effect1_dropShadow_471_4446"/>
<feOffset/>
<feGaussianBlur stdDeviation="9"/>
<feComposite in2="hardAlpha" operator="out"/>
<feColorMatrix type="matrix" values="0 0 0 0 0.405521 0 0 0 0 0.657898 0 0 0 0 0.954167 0 0 0 0.52 0"/>
<feBlend mode="normal" in2="BackgroundImageFix" result="effect1_dropShadow_471_4446"/>
<feColorMatrix in="SourceAlpha" type="matrix" values="0 0 0 0 0 0 0 0 0 0 0 0 0 0 0 0 0 0 127 0" result="hardAlpha"/>
<feMorphology radius="5" operator="dilate" in="SourceAlpha" result="effect2_dropShadow_471_4446"/>
<feOffset/>
<feGaussianBlur stdDeviation="4.5"/>
<feComposite in2="hardAlpha" operator="out"/>
<feColorMatrix type="matrix" values="0 0 0 0 0.568455 0 0 0 0 0.765049 0 0 0 0 0.995833 0 0 0 0.83 0"/>
<feBlend mode="normal" in2="effect1_dropShadow_471_4446" result="effect2_dropShadow_471_4446"/>
<feBlend mode="normal" in="SourceGraphic" in2="effect2_dropShadow_471_4446" result="shape"/>
</filter>
<linearGradient id="paint0_linear_471_4446" x1="1501.5" y1="-5" x2="1502.01" y2="62.9999" gradientUnits="userSpaceOnUse">
<stop stop-color="#1B7EF2" stop-opacity="0"/>
<stop offset="1" stop-color="#1B7EF2" stop-opacity="0.39"/>
</linearGradient>
<linearGradient id="paint1_linear_471_4446" x1="1523.82" y1="56.4998" x2="1609.55" y2="88.2658" gradientUnits="userSpaceOnUse">
<stop stop-color="#1A5AA4" stop-opacity="0.28"/>
<stop offset="1" stop-color="#0669DD" stop-opacity="0.65"/>
</linearGradient>
<linearGradient id="paint2_linear_471_4446" x1="1442" y1="-5.00001" x2="1515.5" y2="63" gradientUnits="userSpaceOnUse">
<stop stop-color="#6D8FB8" stop-opacity="0.05"/>
<stop offset="1" stop-color="#6D8FB8"/>
</linearGradient>
<linearGradient id="paint3_linear_471_4446" x1="2287.5" y1="-5" x2="2286.99" y2="62.9999" gradientUnits="userSpaceOnUse">
<stop stop-color="#1B7EF2" stop-opacity="0"/>
<stop offset="1" stop-color="#1B7EF2" stop-opacity="0.39"/>
</linearGradient>
<linearGradient id="paint4_linear_471_4446" x1="2265.18" y1="56.4998" x2="2179.45" y2="88.2658" gradientUnits="userSpaceOnUse">
<stop stop-color="#1A5AA4" stop-opacity="0.28"/>
<stop offset="1" stop-color="#0669DD" stop-opacity="0.65"/>
</linearGradient>
<linearGradient id="paint5_linear_471_4446" x1="2347" y1="-5.00001" x2="2273.5" y2="63" gradientUnits="userSpaceOnUse">
<stop stop-color="#6D8FB8" stop-opacity="0.05"/>
<stop offset="1" stop-color="#6D8FB8"/>
</linearGradient>
<linearGradient id="paint6_linear_471_4446" x1="1894.5" y1="-28" x2="1894.5" y2="72" gradientUnits="userSpaceOnUse">
<stop stop-color="#050607" stop-opacity="0.31"/>
<stop offset="0.552083" stop-color="#10437F" stop-opacity="0.54"/>
<stop offset="0.786458" stop-color="#1767C5" stop-opacity="0.78"/>
<stop offset="1" stop-color="#1B7EF2" stop-opacity="0.7"/>
</linearGradient>
<linearGradient id="paint7_linear_471_4446" x1="1548.5" y1="37.5" x2="1597.02" y2="67.3673" gradientUnits="userSpaceOnUse">
<stop stop-color="#1A5AA4" stop-opacity="0.87"/>
<stop offset="1" stop-color="#0669DD" stop-opacity="0.65"/>
</linearGradient>
<linearGradient id="paint8_linear_471_4446" x1="2241" y1="36" x2="2192.48" y2="65.8673" gradientUnits="userSpaceOnUse">
<stop stop-color="#1A5AA4" stop-opacity="0.87"/>
<stop offset="1" stop-color="#0669DD" stop-opacity="0.65"/>
</linearGradient>
<linearGradient id="paint9_linear_471_4446" x1="1894.5" y1="-29" x2="1894.5" y2="71" gradientUnits="userSpaceOnUse">
<stop stop-color="#080B0E"/>
<stop offset="1" stop-color="#96C6FE"/>
</linearGradient>
<linearGradient id="paint10_linear_471_4446" x1="1894.5" y1="-28" x2="1894.5" y2="72" gradientUnits="userSpaceOnUse">
<stop stop-color="#14202E"/>
<stop offset="1" stop-color="#96C6FE"/>
</linearGradient>
<linearGradient id="paint11_linear_471_4446" x1="1667" y1="43" x2="1667" y2="53" gradientUnits="userSpaceOnUse">
<stop stop-color="#1B7EF2" stop-opacity="0.42"/>
<stop offset="1" stop-color="#1B7EF2" stop-opacity="0"/>
</linearGradient>
<linearGradient id="paint12_linear_471_4446" x1="1687.5" y1="43" x2="1687.5" y2="53" gradientUnits="userSpaceOnUse">
<stop stop-color="#29AFFA"/>
<stop offset="0.959806" stop-color="#29AFFA" stop-opacity="0"/>
</linearGradient>
<linearGradient id="paint13_linear_471_4446" x1="1868.86" y1="53.6875" x2="1868.86" y2="63.3125" gradientUnits="userSpaceOnUse">
<stop stop-color="#1B7EF2" stop-opacity="0.42"/>
<stop offset="1" stop-color="#1B7EF2" stop-opacity="0"/>
</linearGradient>
<linearGradient id="paint14_linear_471_4446" x1="1865.38" y1="53.6875" x2="1865.38" y2="64" gradientUnits="userSpaceOnUse">
<stop stop-color="#29AFFA"/>
<stop offset="0.598958" stop-color="#29AFFA" stop-opacity="0"/>
</linearGradient>
<linearGradient id="paint15_linear_471_4446" x1="1647" y1="46" x2="1647" y2="63" gradientUnits="userSpaceOnUse">
<stop stop-color="#1B7EF2" stop-opacity="0.42"/>
<stop offset="1" stop-color="#1B7EF2" stop-opacity="0"/>
</linearGradient>
<linearGradient id="paint16_linear_471_4446" x1="1667.5" y1="46" x2="1667.5" y2="63" gradientUnits="userSpaceOnUse">
<stop stop-color="#29AFFA"/>
<stop offset="0.959806" stop-color="#29AFFA" stop-opacity="0"/>
</linearGradient>
<linearGradient id="paint17_linear_471_4446" x1="2032" y1="11" x2="2032" y2="28" gradientUnits="userSpaceOnUse">
<stop stop-color="#1B7EF2" stop-opacity="0.42"/>
<stop offset="1" stop-color="#1B7EF2" stop-opacity="0"/>
</linearGradient>
<linearGradient id="paint18_linear_471_4446" x1="2011.5" y1="11" x2="2011.5" y2="28" gradientUnits="userSpaceOnUse">
<stop stop-color="#29AFFA"/>
<stop offset="0.959806" stop-color="#29AFFA" stop-opacity="0"/>
</linearGradient>
<linearGradient id="paint19_linear_471_4446" x1="2025" y1="17" x2="2025" y2="34" gradientUnits="userSpaceOnUse">
<stop stop-color="#164277"/>
<stop offset="1" stop-color="#14253A" stop-opacity="0.1"/>
</linearGradient>
<linearGradient id="paint20_linear_471_4446" x1="2004.5" y1="17" x2="2004.5" y2="34" gradientUnits="userSpaceOnUse">
<stop stop-color="#29AFFA"/>
<stop offset="0.959806" stop-color="#29AFFA" stop-opacity="0"/>
</linearGradient>
</defs>
</svg>
